<svg xmlns="http://www.w3.org/2000/svg" viewBox="0 0 13.201 22.273"><defs><style>.a{opacity:0.5;}.b{fill:#030303;}</style></defs><g transform="translate(-389.139 -1986.8)"><g class="a" transform="translate(389.139 1998.591)"><path class="b" d="M36.359,39.81H47.887a.812.812,0,0,1,.708.4.8.8,0,0,1-.033.829L42.8,49.955a.845.845,0,0,1-1.35,0L35.7,41.04a.7.7,0,0,1-.121-.428.944.944,0,0,1,.093-.4.851.851,0,0,1,.686-.4Z" transform="translate(-35.579 -39.81)"/></g><g class="a" transform="translate(402.34 1997.281) rotate(180)"><path class="b" d="M.785,0h11.6A.819.819,0,0,1,13.1.4a.8.8,0,0,1-.033.829l-5.8,8.915a.854.854,0,0,1-1.359,0L.122,1.23A.7.7,0,0,1,0,.8.939.939,0,0,1,.095.4.857.857,0,0,1,.785,0Z" transform="translate(0 0)"/></g></g></svg>