<svg xmlns="http://www.w3.org/2000/svg" viewBox="0 0 10.218 10.216"><defs><style>.a{fill:#999;}</style></defs><g transform="translate(0)"><path class="a" d="M9.207,5.02c1.364,0,1.525.006,2.064.03a2.787,2.787,0,0,1,.949.176,1.585,1.585,0,0,1,.588.381,1.56,1.56,0,0,1,.381.588,2.839,2.839,0,0,1,.176.949c.024.539.03.7.03,2.064s-.006,1.525-.03,2.064a2.787,2.787,0,0,1-.176.949,1.585,1.585,0,0,1-.381.588,1.56,1.56,0,0,1-.588.381,2.839,2.839,0,0,1-.949.176c-.539.024-.7.03-2.064.03s-1.525-.006-2.064-.03a2.787,2.787,0,0,1-.949-.176,1.585,1.585,0,0,1-.588-.381,1.56,1.56,0,0,1-.381-.588,2.839,2.839,0,0,1-.176-.949c-.024-.539-.03-.7-.03-2.064s.006-1.525.03-2.064A2.787,2.787,0,0,1,5.225,6.2a1.585,1.585,0,0,1,.381-.588,1.56,1.56,0,0,1,.588-.381,2.839,2.839,0,0,1,.949-.176c.539-.026.7-.03,2.064-.03m0-.92c-1.387,0-1.561.006-2.106.03a3.744,3.744,0,0,0-1.239.237,2.489,2.489,0,0,0-.9.59,2.533,2.533,0,0,0-.59.9A3.746,3.746,0,0,0,4.13,7.1c-.024.543-.03.718-.03,2.1s.006,1.561.03,2.106a3.768,3.768,0,0,0,.237,1.241,2.489,2.489,0,0,0,.59.9,2.533,2.533,0,0,0,.9.59,3.746,3.746,0,0,0,1.241.237c.545.024.718.03,2.106.03s1.561-.006,2.106-.03a3.768,3.768,0,0,0,1.241-.237,2.489,2.489,0,0,0,.9-.59,2.533,2.533,0,0,0,.59-.9,3.746,3.746,0,0,0,.237-1.241c.024-.545.03-.718.03-2.106s-.006-1.561-.03-2.106a3.768,3.768,0,0,0-.237-1.241,2.489,2.489,0,0,0-.59-.9,2.533,2.533,0,0,0-.9-.59,3.746,3.746,0,0,0-1.241-.237c-.547-.022-.722-.028-2.109-.028Z" transform="translate(-4.1 -4.1)"/><path class="a" d="M129.223,126.6a2.623,2.623,0,1,0,2.623,2.623A2.624,2.624,0,0,0,129.223,126.6Zm0,4.327a1.7,1.7,0,1,1,1.7-1.7A1.7,1.7,0,0,1,129.223,130.927Z" transform="translate(-124.116 -124.116)"/><circle class="a" cx="0.612" cy="0.612" r="0.612" transform="translate(7.222 1.768)"/></g></svg>