<svg xmlns="http://www.w3.org/2000/svg" viewBox="0 0 15.698 16.467"><defs><style>.a{fill:#fff;}</style></defs><path class="a" d="M27.732,32.014c-.884,0-4.068-.318-7.974-4.413s-4.206-7.434-4.206-8.361c0-1.519,1.866-3.687,2.344-3.694h1.059a.36.36,0,0,1,.329.231l1.564,3.869a.388.388,0,0,1-.118.445c-1.47,1.16-1.958,1.518-1.967,2.1,0,1.259,4.949,6.452,6.142,6.452.566-.005.942-.511,2.05-2.057a.344.344,0,0,1,.423-.121L31.034,28.1a.377.377,0,0,1,.217.345v1.113C31.248,30.058,29.18,32.014,27.732,32.014Z" transform="translate(-15.553 -15.547)"/></svg>