<svg xmlns="http://www.w3.org/2000/svg" viewBox="0 0 9.545 7.755"><defs><style>.a{fill:#999;}</style></defs><path class="a" d="M9.545.895a3.531,3.531,0,0,1-1.133.3A1.687,1.687,0,0,0,9.247.119,3.914,3.914,0,0,1,7.994.6,2.083,2.083,0,0,0,6.562,0,1.975,1.975,0,0,0,4.653,1.969a.885.885,0,0,0,.06.418A5.489,5.489,0,0,1,.656.358,1.828,1.828,0,0,0,.418,1.372a1.958,1.958,0,0,0,.895,1.611,2.5,2.5,0,0,1-.895-.239h0A1.926,1.926,0,0,0,1.969,4.653a1.652,1.652,0,0,1-.537.06.757.757,0,0,1-.358-.06A1.933,1.933,0,0,0,2.923,6.025a3.794,3.794,0,0,1-2.446.835H0a5.307,5.307,0,0,0,2.983.895A5.522,5.522,0,0,0,8.531,2.207V1.969A3.468,3.468,0,0,0,9.545.895Z" transform="translate(0)"/></svg>