<svg xmlns="http://www.w3.org/2000/svg" viewBox="0 0 39.792 15.869"><defs><style>.a{fill:none;}.b{fill:#999;}.c{fill:#fff;}</style></defs><g transform="translate(0)"><path class="a" d="M30.3,4h4.773a13.455,13.455,0,0,1,0,1.551H33.4v8.77H31.911V5.551H30.3Z" transform="translate(-12.224 -1.614)"/><path class="a" d="M38.8,8.5h1.372v6.2a.314.314,0,0,0,.358.3,1.364,1.364,0,0,0,.895-.656V8.56H42.8v7.7H41.425v-.895a2.406,2.406,0,0,1-1.551.955c-.776,0-1.074-.537-1.074-1.432Z" transform="translate(-15.653 -3.429)"/><path class="a" d="M47.6,4.1h1.372V7.441s.716-.895,1.372-.895a1.266,1.266,0,0,1,1.312,1.372v5.071s-.179,1.432-1.014,1.432a2.081,2.081,0,0,1-1.67-.895V14.3H47.6Z" transform="translate(-19.203 -1.654)"/><path class="a" d="M57.772,12.616h2.744V10.528A1.92,1.92,0,0,0,58.548,8.5c-1.73,0-1.909.895-2.028,1.312a3.26,3.26,0,0,0-.119.716v3.639a2.133,2.133,0,0,0,2.267,2.207s1.611-.119,1.849-1.432a5.339,5.339,0,0,0,.06-1.312H59.144v.6s0,.895-.6.895-.776-.418-.776-.895Z" transform="translate(-22.753 -3.429)"/><path class="a" d="M50,10.8a1.07,1.07,0,0,1,.656-.3c.358,0,.6.3.6.776v3.878s0,.656-.6.656a.918.918,0,0,1-.656-.3Z" transform="translate(-20.171 -4.236)"/><path class="a" d="M58.7,12.23h1.372v-.955s-.06-.776-.656-.776-.716.656-.716.776Z" transform="translate(-23.681 -4.236)"/><g transform="translate(0 2.386)"><path class="b" d="M7.636,6.565a1.22,1.22,0,0,0-.656,0A2.09,2.09,0,0,0,5.429,8s-.06.477-.06.716v3.579a2.266,2.266,0,0,0,.358,1.133,1.753,1.753,0,0,0,1.432.835H7.7a1.9,1.9,0,0,0,1.372-.835,2.266,2.266,0,0,0,.358-1.133V8.713c0-.239-.06-.716-.06-.716A2.171,2.171,0,0,0,7.636,6.565Zm.358,2.148v3.579c0,.895-.656.776-.656.776s-.716.06-.716-.776V8.713c0-1.014.716-.955.716-.955C8.054,7.758,7.994,8.713,7.994,8.713ZM2.685,8,1.611,4H0l1.969,6.085V14.2H3.4V10.085L5.25,4H3.758Zm10.44-1.372v5.846a1.473,1.473,0,0,1-.776.656c-.477,0-.418-.358-.418-.358V6.625H10.559v6.562a.993.993,0,0,0,1.074,1.133c.716,0,1.491-.955,1.491-.955v.895H14.5V6.625Z" transform="translate(0 -4)"/></g><g transform="translate(15.869)"><path class="b" d="M47.122,7.04s-.06-.776-.656-.776-.716.656-.716.776v.955h1.372ZM48.077.3C46.406,0,44.5.06,38.472,0c-4.057,0-6.145.06-6.383.06-2.625.119-4.415-.239-5.071,2.625a30.944,30.944,0,0,0-.418,5.19c.119,3.4-.119,7.457,3.1,7.755,1.67.119,6.025.239,8.889.239a75.78,75.78,0,0,0,9.6-.358,2.97,2.97,0,0,0,1.372-1.074c.835-1.133.895-2.864.955-6.562C50.4,4.713,50.582.656,48.077.3ZM33.58,3.937H31.91v8.77H30.418V3.937H28.807V2.386H33.58A13.453,13.453,0,0,1,33.58,3.937Zm4.3,8.889H36.5v-.895a2.406,2.406,0,0,1-1.551.955c-.776,0-1.074-.537-1.074-1.432V5.131H35.25v6.2a.314.314,0,0,0,.358.3,1.364,1.364,0,0,0,.895-.656V5.19h1.372Zm5.31-1.432s-.179,1.432-1.014,1.432a2.081,2.081,0,0,1-1.67-.895v.776H39.128V2.446H40.5V5.787s.716-.895,1.372-.895a1.266,1.266,0,0,1,1.312,1.372Zm5.25,0c-.239,1.312-1.849,1.432-1.849,1.432a2.133,2.133,0,0,1-2.267-2.207V6.98a3.26,3.26,0,0,1,.119-.716c.179-.418.3-1.312,2.028-1.312A1.92,1.92,0,0,1,48.435,6.98V9.068H45.69v1.551a.815.815,0,0,0,.776.895c.537,0,.6-.895.6-.895v-.6h1.372C48.494,10.082,48.554,10.44,48.435,11.395ZM41.216,6.264a1.07,1.07,0,0,0-.656.3v4.713a.918.918,0,0,0,.656.3c.6,0,.6-.656.6-.656V7.04C41.813,6.562,41.574,6.264,41.216,6.264Z" transform="translate(-26.6)"/></g><path class="a" d="M30.3,3.9h4.773a13.455,13.455,0,0,1,0,1.551H33.4v8.77H31.911V5.451H30.3Z" transform="translate(-12.224 -1.573)"/><path class="a" d="M38.8,8.5h1.372v6.2a.314.314,0,0,0,.358.3,1.364,1.364,0,0,0,.895-.656V8.56H42.8v7.7H41.425v-.895a2.406,2.406,0,0,1-1.551.955c-.776,0-1.074-.537-1.074-1.432Z" transform="translate(-15.653 -3.429)"/><path class="a" d="M47.6,4.1h1.372V7.441s.716-.895,1.372-.895a1.266,1.266,0,0,1,1.312,1.372v5.071s-.179,1.432-1.014,1.432a2.081,2.081,0,0,1-1.67-.895V14.3H47.6Z" transform="translate(-19.203 -1.654)"/><path class="a" d="M57.772,12.516h2.744V10.428A1.92,1.92,0,0,0,58.548,8.4c-1.73,0-1.909.895-2.028,1.312a3.26,3.26,0,0,0-.119.716v3.639a2.133,2.133,0,0,0,2.267,2.207s1.611-.119,1.849-1.432a5.339,5.339,0,0,0,.06-1.312H59.144v.6s0,.895-.6.895-.776-.418-.776-.895Z" transform="translate(-22.753 -3.389)"/><path class="a" d="M58.7,12.13h1.372v-.955s-.06-.776-.656-.776-.716.656-.716.776Z" transform="translate(-23.681 -4.196)"/><path class="a" d="M50,10.7a1.07,1.07,0,0,1,.656-.3c.358,0,.6.3.6.776v3.878s0,.656-.6.656a.918.918,0,0,1-.656-.3Z" transform="translate(-20.171 -4.196)"/><path class="c" d="M64.172,24.1A2.379,2.379,0,0,1,62.8,25.174" transform="translate(-25.335 -9.723)"/></g></svg>